<svg width="252" height="144" xmlns="http://www.w3.org/2000/svg">
 <!-- Created with Method Draw - http://github.com/duopixel/Method-Draw/ -->
 <g>
  <title>background</title>
  <rect fill="none" id="canvas_background" height="146" width="254" y="-1" x="-1"/>
  <g display="none" overflow="visible" y="0" x="0" height="100%" width="100%" id="canvasGrid">
   <rect fill="url(#gridpattern)" stroke-width="0" y="0" x="0" height="100%" width="100%"/>
  </g>
 </g>
 <g>
  <title>Layer 1</title>
  <path stroke-width="1.5" transform="rotate(-153.1499481201172 61.89488220214844,79.91453552246094) " id="svg_1" d="m62.92243,29.93931c-2.98234,1.10282 -5.70378,2.57306 -8.44697,3.88351c-0.93487,0.44624 -1.99692,1.15554 -2.86331,1.37241c-2.20781,0.55059 -5.66248,-0.41254 -8.47686,-0.51309c-7.03434,-0.24948 -11.58856,0.26796 -17.37116,1.13978c-2.70623,0.4071 -5.50811,0.78866 -7.88333,1.48492c-2.02899,0.59516 -4.35529,1.92518 -6.62561,3.04376c-3.58783,1.7681 -6.03153,3.43292 -8.82907,5.56464c-4.67597,3.56065 -7.61972,8.04313 -11.04123,12.96804c-1.49416,2.14965 -3.64599,5.35266 -3.75306,7.89638c-1.9779,2.99756 -4.98307,4.82762 -5.73694,9.21552c1.0539,2.566 3.78513,0.28427 5.43093,-0.57016c1.36099,-0.70876 2.82526,-1.55558 4.03135,-1.89528c6.26851,-1.76701 15.00409,0.75877 21.10737,-0.86041c2.16324,-0.57342 4.03733,-1.73114 6.18644,-2.2214c2.04095,-0.46689 3.60196,0.35982 5.05699,0.98813c0.7729,0.33481 1.5871,0.78812 2.28934,1.14847c4.54716,2.34967 9.09214,4.84066 15.19705,5.77879c4.89991,0.7517 9.15682,-0.68267 13.13979,-1.45774c1.01096,-0.1973 2.31706,-0.12555 3.08398,-0.98868c-3.1791,-0.718 -5.81738,-1.94257 -9.13725,-3.24975c-4.36073,-1.71537 -7.74799,-2.87581 -9.39597,-6.3196c1.95181,-0.51092 4.21234,-0.13208 6.24405,0.22393c2.21868,0.38699 4.42051,0.75061 6.54951,1.10064c8.98941,1.48003 15.7596,3.96449 22.60262,7.18762c3.32422,1.56373 6.38754,3.74273 9.20519,5.57171c5.77064,3.75034 10.69663,8.40729 15.34271,13.48058c2.10291,2.29695 3.98134,5.1733 6.26199,7.91486c0.99683,1.19848 1.9991,2.53556 3.06441,4.01559c1.01803,1.40611 2.57143,3.12963 2.78667,4.35964c0.24241,1.35828 -0.47885,2.84754 -0.84193,4.33192c-0.62777,2.5785 -1.09086,5.34451 -0.88052,7.99204c0.27503,3.42423 1.04031,6.75932 2.64481,9.35358c0.69626,-0.61908 0.98052,-1.70885 1.33925,-2.70677c1.75886,-2.24803 4.09875,-4.49335 4.1569,-8.23445c4.80425,2.48284 14.13608,2.27467 19.73877,2.20999c1.68439,-0.01957 3.40031,0.15871 4.79555,-0.49624c-2.94266,-1.70559 -5.10264,-3.86394 -7.66049,-6.0674c-3.86992,-3.32911 -7.07076,-6.13371 -12.77563,-7.91486c-1.84908,-0.57723 -3.96612,-0.88976 -4.97926,-1.95942c-0.77888,-0.81855 -1.01585,-2.63176 -1.411,-4.37812c-1.0626,-4.72163 -2.44425,-9.73133 -3.67697,-13.70506c-3.69925,-11.94457 -9.34542,-22.56022 -16.85752,-30.80446c-3.80687,-4.18082 -8.35294,-7.58548 -13.25448,-11.37115c-0.83758,-1.31316 -2.40674,-3.08452 -2.73069,-5.08688c-0.33155,-2.0616 0.26633,-3.87101 1.54036,-5.25592c2.78721,-2.03388 7.16642,-2.2589 9.06007,-5.3032c-2.47577,-1.78223 -5.54779,-2.30456 -8.5622,-2.59589c-6.51201,-0.62995 -12.61311,-0.14077 -17.66466,1.72951z" stroke="#f01414" fill="none"/>
  <text font-weight="bold" xml:space="preserve" text-anchor="start" font-family="Helvetica, Arial, sans-serif" font-size="32" id="svg_2" y="62.53125" x="47" stroke-opacity="null" stroke-width="0" stroke="#000" fill="#f2f2f2">FUJIA.SITE</text>
  <text xml:space="preserve" text-anchor="start" font-family="Helvetica, Arial, sans-serif" font-size="24" id="svg_3" y="93.53125" x="90" stroke-opacity="null" stroke-width="0" stroke="#000" fill="#f2f2f2">All From Love</text>
 </g>
</svg>